<svg width="50" height="50" viewBox="0 0 50 50" fill="none" xmlns="http://www.w3.org/2000/svg">
<path fill-rule="evenodd" clip-rule="evenodd" d="M32.2776 14.448C32.9276 15.0155 32.9945 16.0025 32.427 16.6526L24.2424 26.0277C23.6749 26.6777 22.6878 26.7446 22.0378 26.1771C21.3878 25.6096 21.3208 24.6225 21.8885 23.9725L30.0728 14.5974C30.6403 13.9474 31.6274 13.8804 32.2776 14.448ZM7.30569 25.6979C7.95576 25.1304 8.94282 25.1973 9.51034 25.8475L14.8809 31.9992L17.7961 28.66C18.3636 28.0098 19.3507 27.9429 20.0008 28.5104C20.6508 29.0779 20.7177 30.065 20.1502 30.7152L16.058 35.4027C15.7612 35.7425 15.3321 35.9375 14.8809 35.9375C14.4297 35.9375 14.0006 35.7425 13.7038 35.4027L7.15622 27.9027C6.58869 27.2525 6.65561 26.2654 7.30569 25.6979Z" fill="#EC1721"/>
<path fill-rule="evenodd" clip-rule="evenodd" d="M42.7447 14.6239C43.3695 15.2191 43.3937 16.2081 42.7985 16.833L33.8697 26.208C33.2745 26.833 32.2856 26.8569 31.6606 26.2619C31.0358 25.6667 31.0116 24.6778 31.6068 24.0528L40.5356 14.6778C41.1308 14.0529 42.1197 14.0288 42.7447 14.6239ZM29.3514 28.6865C29.9762 29.2815 30.0004 30.2707 29.4052 30.8955L24.9408 35.583C24.6252 35.9144 24.1802 36.0907 23.7233 36.0655C23.2664 36.0403 22.8435 35.8161 22.5662 35.4519L21.6739 34.28C21.1512 33.5936 21.2839 32.6132 21.9704 32.0905C22.5602 31.6413 23.3668 31.6759 23.9139 32.1298L27.1422 28.7403C27.7375 28.1155 28.7264 28.0913 29.3514 28.6865Z" fill="#EC1721"/>
</svg>
