<svg width="281" height="726" viewBox="0 0 281 726" fill="none" xmlns="http://www.w3.org/2000/svg">
<path fill-rule="evenodd" clip-rule="evenodd" d="M235.42 369.091C221.323 497.186 145.79 604.317 -5.54659 641.387L-6.05082 686.556C-6.35045 691.873 -9.16394 692.816 -13.6436 690.844L-127.754 605.194L-14.4328 519.953C-9.60971 516.988 -6.54042 518.193 -4.3627 521.531L-4.3627 558.629C74.5099 533.137 133.688 478.341 156.203 369.055L194.05 420.696L235.42 369.091Z" fill="#FF0000"/>
<path fill-rule="evenodd" clip-rule="evenodd" d="M-41.7029 44.1098C86.3937 58.2065 193.527 133.739 230.596 285.083L275.767 285.58C281.077 285.88 282.019 288.701 280.054 293.173L194.403 407.284L109.161 293.962C106.196 289.139 107.401 286.07 110.739 283.892L147.838 283.892C122.346 205.019 67.5484 145.841 -41.7394 123.319L9.90246 85.479L-41.7029 44.1098Z" fill="#FF0000"/>
<path d="M157.85 430.438L160.796 424.497L183.27 436.635C186.895 438.593 189.26 441.621 190.363 445.719C191.478 449.855 191.096 453.818 189.217 457.607C187.35 461.372 184.447 463.88 180.508 465.131C176.57 466.383 172.752 466.01 169.054 464.013C166.461 462.612 164.489 460.912 163.137 458.911C161.809 456.923 161.007 454.459 160.729 451.52C160.417 448.282 160.873 445.429 162.097 442.96C163.127 440.882 164.722 439.047 166.882 437.454L173.869 441.228C172.689 441.459 171.58 442.007 170.542 442.872C169.492 443.762 168.658 444.83 168.04 446.077C166.973 448.228 166.712 450.35 167.258 452.442C167.874 454.821 169.479 456.71 172.072 458.111C174.137 459.226 176.284 459.409 178.512 458.66C180.74 457.911 182.388 456.46 183.455 454.309C184.546 452.109 184.729 449.837 184.004 447.492C183.279 445.148 181.836 443.392 179.675 442.225L157.85 430.438Z" fill="white"/>
<path d="M178.195 475.936L174.655 481.927L149.021 465.868L152.56 459.877L178.195 475.936ZM178.083 480.066C178.749 478.939 179.628 478.282 180.72 478.097C181.812 477.912 182.843 478.123 183.814 478.732C184.763 479.326 185.392 480.138 185.701 481.169C185.997 482.224 185.805 483.326 185.125 484.478C184.514 485.511 183.651 486.114 182.537 486.285C181.533 486.428 180.557 486.203 179.609 485.609C178.684 485.03 178.043 484.21 177.687 483.15C177.34 482.128 177.472 481.1 178.083 480.066Z" fill="white"/>
<path d="M134.968 471.895L138.752 466.45L159.482 481.37C162.827 483.778 164.76 487.068 165.282 491.243C165.81 495.455 164.868 499.298 162.454 502.772C160.057 506.223 156.802 508.302 152.691 509.007C148.58 509.712 144.818 508.837 141.408 506.382C139.016 504.661 137.286 502.727 136.219 500.58C135.174 498.45 134.721 495.922 134.86 492.996C135.006 489.773 135.865 487.03 137.438 484.767C138.761 482.862 140.614 481.271 142.997 479.993L149.442 484.632C148.231 484.702 147.045 485.093 145.886 485.805C144.712 486.539 143.727 487.478 142.933 488.621C141.563 490.593 141.002 492.644 141.251 494.772C141.53 497.192 142.866 499.263 145.258 500.984C147.162 502.355 149.281 502.821 151.613 502.381C153.945 501.942 155.796 500.736 157.166 498.764C158.567 496.747 159.071 494.538 158.679 492.138C158.287 489.738 157.094 487.82 155.101 486.386L134.968 471.895Z" fill="white"/>
<path d="M123.436 530.825C125.475 531.805 127.512 532.058 129.545 531.585C131.561 531.132 133.328 530.029 134.846 528.276C136.525 526.336 137.29 524.035 137.14 521.373C136.993 518.749 135.973 516.613 134.079 514.965C133.75 514.678 133.494 514.473 133.311 514.351C131.077 512.804 128.73 512.263 126.271 512.727C124.078 513.134 122.196 514.245 120.625 516.061C119.732 517.092 119.067 518.214 118.631 519.427C118.216 520.657 118.092 521.905 118.258 523.172L111.561 523.529C111.374 521.16 111.591 519.033 112.211 517.149C112.832 515.265 113.927 513.415 115.499 511.6C118.446 508.195 122.146 506.297 126.601 505.905C131.055 505.513 134.959 506.777 138.314 509.697C141.711 512.653 143.585 516.346 143.936 520.776C144.291 525.245 143.004 529.171 140.075 532.555C137.128 535.959 133.29 537.828 128.561 538.163C123.836 538.535 119.795 537.262 116.44 534.341C116.069 534.019 115.709 533.705 115.359 533.401C115.104 533.07 114.913 532.832 114.787 532.686L129.896 515.231C130.218 514.86 130.578 514.757 130.976 514.922C131.374 515.088 131.84 515.404 132.376 515.869C132.602 516.067 132.767 516.21 132.87 516.299C133.137 516.532 133.343 516.711 133.487 516.837C133.878 517.177 134.131 517.469 134.245 517.713C134.379 517.975 134.312 518.26 134.044 518.57L123.436 530.825Z" fill="white"/>
<path d="M131.152 555.345L126.222 560.256L97.1284 531.462L102.058 526.551L131.152 555.345Z" fill="white"/>
<path d="M113.573 557.563L108.445 562.267L87.7206 540.233L92.8487 535.529L113.573 557.563ZM112.323 561.432C113.288 560.546 114.332 560.163 115.455 560.281C116.577 560.399 117.531 560.875 118.316 561.71C119.083 562.525 119.476 563.461 119.495 564.517C119.494 565.591 119.001 566.58 118.016 567.484C117.131 568.296 116.118 568.633 114.977 568.495C113.952 568.361 113.056 567.886 112.29 567.072C111.542 566.276 111.14 565.331 111.083 564.235C111.025 563.178 111.438 562.243 112.323 561.432Z" fill="white"/>
<path d="M82.7979 544.758L94.3927 558.753C96.9171 561.8 97.955 565.276 97.5064 569.182C97.0538 573.126 95.2554 576.343 92.1113 578.834C89.0313 581.274 85.5039 582.277 81.5291 581.841C77.5543 581.405 74.3047 579.664 71.7802 576.617L60.1854 562.622L65.9924 558.021L77.7439 572.205C78.9278 573.634 80.4957 574.393 82.4475 574.482C84.3954 574.61 86.1286 574.072 87.6472 572.869C89.1016 571.716 89.9544 570.223 90.2056 568.388C90.4528 566.591 89.9932 564.988 88.8267 563.58L77.0229 549.333L82.7979 544.758Z" fill="white"/>
<path d="M45.6203 593.795C47.3604 595.274 49.2914 596.067 51.4134 596.173C53.5124 596.294 55.5409 595.733 57.499 594.49C59.6644 593.115 61.0293 591.149 61.5935 588.594C62.1501 586.076 61.7193 583.782 60.301 581.71C60.0543 581.35 59.8578 581.087 59.7114 580.921C57.9318 578.853 55.7733 577.704 53.236 577.474C50.9754 577.262 48.8315 577.799 46.8043 579.087C45.6525 579.818 44.7008 580.697 43.9493 581.723C43.2132 582.772 42.7579 583.917 42.5833 585.159L35.9154 583.675C36.3648 581.387 37.1454 579.437 38.2572 577.827C39.369 576.216 40.9385 574.767 42.9657 573.48C46.7667 571.066 50.9051 570.28 55.3808 571.121C59.8566 571.961 63.3509 574.217 65.8637 577.887C68.4074 581.602 69.2603 585.6 68.4225 589.879C67.577 594.196 65.2653 597.554 61.4873 599.953C57.6863 602.366 53.421 603.088 48.6913 602.118C43.954 601.185 40.3289 598.883 37.816 595.213C37.5385 594.807 37.2688 594.413 37.0067 594.031C36.8445 593.649 36.721 593.372 36.6362 593.2L56.125 580.824C56.5396 580.561 56.9201 580.562 57.2666 580.826C57.613 581.091 57.9866 581.516 58.3875 582.101C58.557 582.349 58.6804 582.529 58.7574 582.642C58.9579 582.935 59.112 583.16 59.2199 583.317C59.5128 583.745 59.6826 584.09 59.7292 584.351C59.7912 584.634 59.6495 584.886 59.3039 585.105L45.6203 593.795Z" fill="white"/>
<path d="M33.9667 597.992C34.7026 600.649 34.8353 603.156 34.3647 605.515C33.8627 607.882 32.8669 609.881 31.3772 611.51C29.8561 613.149 27.9768 614.293 25.7393 614.944C23.7855 615.512 21.9743 615.612 20.3057 615.243C18.6056 614.883 17.1479 614.23 15.9326 613.285L16.9707 617.033L10.3057 618.971L3.02595 592.688L9.69099 590.75L10.7553 594.593C11.2646 593.112 12.1616 591.74 13.4465 590.478C14.7086 589.256 16.3165 588.361 18.2704 587.793C20.4763 587.152 22.6508 587.134 24.7939 587.741C26.9056 588.358 28.7818 589.538 30.4227 591.282C32.0408 593.067 33.2221 595.304 33.9667 597.992ZM13.3308 603.891C13.7776 605.504 14.4738 606.789 15.4194 607.744C16.3738 608.731 17.47 609.369 18.7079 609.658C19.9545 609.979 21.1923 609.961 22.4214 609.603C23.6504 609.246 24.7016 608.616 25.5751 607.712C26.4486 606.809 27.0542 605.676 27.3918 604.313C27.7067 602.991 27.6452 601.539 27.2072 599.958C26.7692 598.377 26.0686 597.077 25.1054 596.058C24.1195 595.08 23.019 594.426 21.8039 594.096C20.5572 593.775 19.3351 593.789 18.1376 594.137C16.9086 594.495 15.8416 595.13 14.9366 596.042C14.0404 596.986 13.4348 598.12 13.1199 599.441C12.8138 600.795 12.8841 602.278 13.3308 603.891Z" fill="white"/>
<path d="M-30.7756 628.175C-34.0589 628.828 -36.9 628.338 -39.2988 626.707C-41.7234 625.114 -43.2939 622.516 -44.0105 618.91L-47.1295 603.218L-40.3697 601.874L-37.4331 616.649C-37.0172 618.742 -36.1694 620.229 -34.8896 621.113C-33.6035 622.028 -32.043 622.304 -30.2082 621.939C-28.3734 621.574 -27.0207 620.72 -26.1502 619.376C-25.3055 618.07 -25.0911 616.371 -25.5069 614.279L-28.4436 599.504L-21.6838 598.161L-18.7472 612.935C-18.3313 615.028 -17.4835 616.516 -16.2037 617.399C-14.9176 618.314 -13.3571 618.59 -11.5223 618.225C-9.65531 617.854 -8.28657 616.996 -7.41606 615.652C-6.57134 614.347 -6.35691 612.648 -6.77277 610.555L-9.70938 595.781L-2.94963 594.437L2.36699 621.186L-4.39276 622.53L-5.03575 619.295C-5.68094 620.594 -6.61553 621.7 -7.83952 622.613C-9.0957 623.532 -10.5446 624.154 -12.1863 624.48C-14.2786 624.896 -16.2351 624.817 -18.0559 624.242C-19.8703 623.699 -21.3913 622.696 -22.6189 621.234C-23.1809 622.951 -24.19 624.44 -25.6461 625.7C-27.1344 626.966 -28.8442 627.791 -30.7756 628.175Z" fill="white"/>
<path d="M-8.60307 73.4632L-1.95053 75.5041L-11.5713 104.183L-18.2238 102.142L-8.60307 73.4632ZM-4.56062 72.6061C-5.81286 72.2219 -6.65665 71.5208 -7.09199 70.5027C-7.52732 69.4846 -7.56273 68.4322 -7.1982 67.3456C-6.84236 66.2849 -6.19944 65.4834 -5.26945 64.9413C-4.31337 64.4071 -3.19617 64.3361 -1.91783 64.7282C-0.769945 65.0804 0.017327 65.7784 0.443982 66.8224C0.81841 67.7648 0.827702 68.7663 0.471859 69.8271C0.124695 70.8619 -0.522562 71.6763 -1.46991 72.2702C-2.3825 72.8463 -3.41273 72.9582 -4.56062 72.6061Z" fill="white"/>
<path d="M-2.42598 116.437L-8.60538 114.031L1.05562 90.3868C2.61418 86.5724 5.36179 83.9235 9.29846 82.4402C13.2709 80.9416 17.2279 80.9595 21.1695 82.4938C25.0856 84.0183 27.8671 86.6968 29.5139 90.5293C31.1606 94.3617 31.1893 98.2231 29.5997 102.113C28.485 104.841 27.009 106.975 25.1716 108.514C23.3445 110.028 20.9925 111.06 18.1155 111.609C14.9477 112.22 12.0796 112.026 9.51125 111.026C7.34973 110.185 5.36959 108.755 3.57083 106.737L6.57441 99.3865C6.92518 100.548 7.58223 101.609 8.54556 102.569C9.53432 103.54 10.6772 104.277 11.9741 104.782C14.2119 105.653 16.3366 105.719 18.3482 104.98C20.6356 104.143 22.3366 102.36 23.4513 99.632C24.339 97.4595 24.2966 95.291 23.3241 93.1265C22.3517 90.9619 20.7466 89.444 18.5087 88.5729C16.2201 87.682 13.9547 87.7078 11.7127 88.6503C9.47074 89.5929 7.88527 91.2009 6.95633 93.4744L-2.42598 116.437Z" fill="white"/>
<path d="M57.5673 113.873C58.0427 111.661 57.8127 109.622 56.8774 107.755C55.9664 105.901 54.4808 104.441 52.4208 103.375C50.1426 102.196 47.7267 101.99 45.1729 102.758C42.656 103.514 40.8176 105.006 39.6578 107.232C39.4561 107.619 39.3169 107.916 39.2403 108.122C38.2588 110.656 38.2813 113.064 39.3077 115.347C40.2158 117.384 41.7362 118.954 43.869 120.058C45.0808 120.685 46.327 121.069 47.6077 121.209C48.901 121.325 50.1439 121.154 51.3364 120.696L53.2493 127.124C50.9893 127.86 48.8709 128.146 46.8942 127.984C44.9174 127.821 42.8626 127.188 40.7299 126.084C36.731 124.015 34.0203 120.861 32.5976 116.622C31.175 112.383 31.4911 108.291 33.546 104.346C35.6261 100.353 38.7788 97.6672 43.0041 96.2895C47.2662 94.9002 51.3845 95.2339 55.3592 97.2907C59.3581 99.3601 62.0727 102.655 63.503 107.174C64.9702 111.682 64.6764 115.908 62.6215 119.853C62.3946 120.289 62.1739 120.712 61.9596 121.124C61.6978 121.449 61.5107 121.69 61.3982 121.847L40.8948 111.237C40.4586 111.011 40.2744 110.685 40.3423 110.26C40.4103 109.834 40.6081 109.306 40.9359 108.677C41.0746 108.411 41.1754 108.217 41.2384 108.096C41.4023 107.782 41.5284 107.54 41.6167 107.37C41.8562 106.91 42.0811 106.597 42.2916 106.429C42.5146 106.237 42.8078 106.235 43.1714 106.423L57.5673 113.873Z" fill="white"/>
<path d="M79.6032 100.639L85.5306 104.284L64.3364 139.302L58.409 135.657L79.6032 100.639Z" fill="white"/>
<path d="M85.8699 117.211L91.642 121.098L75.0632 146.399L69.2911 142.513L85.8699 117.211ZM89.9231 117.523C88.8366 116.791 88.2196 115.866 88.072 114.747C87.9245 113.628 88.1648 112.589 88.793 111.63C89.4062 110.694 90.2239 110.093 91.2461 109.828C92.291 109.577 93.3681 109.826 94.4772 110.572C95.4732 111.243 96.0375 112.149 96.17 113.291C96.2796 114.319 96.0277 115.301 95.4145 116.236C94.8163 117.149 93.9911 117.762 92.9389 118.073C91.9244 118.377 90.9191 118.193 89.9231 117.523Z" fill="white"/>
<path d="M80.6137 150.128L91.5102 135.582C93.8825 132.416 97.0199 130.594 100.922 130.117C104.863 129.635 108.411 130.631 111.569 133.106C114.661 135.53 116.46 138.725 116.966 142.692C117.471 146.659 116.538 150.225 114.166 153.392L103.269 167.937L97.438 163.367L108.482 148.625C109.594 147.14 109.966 145.438 109.597 143.519C109.265 141.596 108.337 140.036 106.812 138.841C105.352 137.696 103.7 137.216 101.857 137.401C100.052 137.581 98.6015 138.402 97.5053 139.865L86.4125 154.673L80.6137 150.128Z" fill="white"/>
<path d="M136.983 174.811C138.015 172.773 138.334 170.71 137.942 168.622C137.569 166.553 136.549 164.712 134.882 163.099C133.039 161.315 130.809 160.447 128.193 160.496C125.615 160.544 123.484 161.499 121.802 163.362C121.509 163.686 121.299 163.939 121.173 164.12C119.578 166.334 118.965 168.701 119.334 171.222C119.657 173.469 120.68 175.428 122.406 177.098C123.386 178.047 124.463 178.767 125.637 179.258C126.829 179.728 128.049 179.903 129.297 179.783L129.413 186.613C127.083 186.711 125.005 186.407 123.179 185.703C121.353 184.999 119.578 183.811 117.852 182.141C114.617 179.01 112.885 175.17 112.656 170.622C112.427 166.073 113.803 162.149 116.784 158.847C119.802 155.506 123.489 153.742 127.846 153.556C132.24 153.369 136.046 154.832 139.261 157.944C142.497 161.075 144.196 165.054 144.358 169.879C144.558 174.703 143.168 178.766 140.187 182.067C139.857 182.432 139.537 182.786 139.227 183.131C138.893 183.378 138.653 183.562 138.505 183.685L121.917 167.63C121.564 167.288 121.476 166.918 121.652 166.519C121.828 166.12 122.154 165.658 122.629 165.131C122.831 164.908 122.977 164.746 123.068 164.645C123.306 164.382 123.489 164.179 123.617 164.038C123.965 163.653 124.26 163.407 124.503 163.301C124.764 163.174 125.042 163.253 125.336 163.538L136.983 174.811Z" fill="white"/>
<path d="M143.789 185.16C146.2 183.824 148.607 183.108 151.01 183.015C153.429 182.949 155.605 183.45 157.537 184.518C159.486 185.614 161.038 187.173 162.194 189.197C163.203 190.964 163.724 192.701 163.755 194.41C163.802 196.147 163.509 197.717 162.874 199.119L166.275 197.234L169.718 203.261L145.865 216.484L142.422 210.456L145.91 208.523C144.351 208.374 142.807 207.823 141.28 206.869C139.797 205.927 138.551 204.573 137.542 202.806C136.402 200.811 135.877 198.701 135.966 196.475C136.072 194.278 136.781 192.178 138.093 190.175C139.45 188.184 141.349 186.513 143.789 185.16ZM154.349 203.845C155.812 203.034 156.898 202.057 157.606 200.914C158.343 199.755 158.707 198.54 158.699 197.269C158.719 195.982 158.412 194.783 157.777 193.671C157.142 192.56 156.284 191.685 155.201 191.047C154.119 190.409 152.875 190.085 151.471 190.075C150.113 190.078 148.715 190.477 147.28 191.273C145.845 192.068 144.745 193.054 143.98 194.228C143.26 195.415 142.881 196.638 142.844 197.897C142.824 199.184 143.122 200.369 143.741 201.452C144.376 202.563 145.243 203.452 146.342 204.119C147.469 204.77 148.712 205.093 150.071 205.091C151.459 205.072 152.885 204.657 154.349 203.845Z" fill="white"/>
<path d="M188.271 241.052C189.673 244.092 189.861 246.969 188.836 249.683C187.854 252.412 185.695 254.547 182.357 256.087L167.828 262.788L164.942 256.529L178.621 250.22C180.558 249.326 181.806 248.154 182.366 246.704C182.955 245.239 182.858 243.657 182.075 241.959C181.291 240.26 180.144 239.145 178.634 238.612C177.167 238.096 175.465 238.285 173.528 239.178L159.849 245.488L156.962 239.229L170.641 232.92C172.579 232.027 173.827 230.854 174.387 229.404C174.976 227.939 174.879 226.357 174.095 224.659C173.298 222.93 172.144 221.8 170.634 221.268C169.167 220.752 167.465 220.94 165.528 221.834L151.849 228.143L148.962 221.885L173.728 210.462L176.614 216.72L173.619 218.102C175.033 218.425 176.327 219.076 177.5 220.052C178.688 221.059 179.632 222.322 180.333 223.842C181.226 225.779 181.606 227.7 181.473 229.605C181.369 231.496 180.75 233.209 179.615 234.745C181.416 234.889 183.1 235.522 184.665 236.644C186.244 237.795 187.446 239.264 188.271 241.052Z" fill="white"/>
<path d="M193.196 265.481C194.664 265.878 196.043 266.658 197.333 267.822C198.666 269.005 199.671 270.538 200.349 272.422C201.137 274.615 201.31 276.792 200.868 278.955C200.436 281.149 199.405 283.129 197.774 284.896C196.185 286.683 194.084 288.065 191.471 289.043C188.858 290.021 186.349 290.364 183.943 290.074C181.578 289.802 179.52 288.978 177.77 287.601C176.03 286.255 174.766 284.486 173.977 282.293C173.299 280.409 173.083 278.598 173.33 276.859C173.587 275.151 174.139 273.63 174.984 272.298L159.171 278.217L156.838 271.732L194.551 257.615L196.884 264.1L193.196 265.481ZM189.088 282.419C190.625 281.843 191.83 281.024 192.703 279.962C193.618 278.918 194.179 277.762 194.385 276.494C194.602 275.256 194.494 274.035 194.061 272.831C193.639 271.657 192.932 270.661 191.939 269.841C190.989 269.04 189.828 268.529 188.457 268.306C187.098 268.114 185.65 268.305 184.113 268.881C182.576 269.456 181.35 270.265 180.435 271.309C179.531 272.383 178.955 273.544 178.707 274.794C178.501 276.062 178.609 277.283 179.031 278.457C179.464 279.661 180.172 280.658 181.153 281.447C182.145 282.267 183.321 282.773 184.681 282.964C186.051 283.187 187.52 283.005 189.088 282.419Z" fill="white"/>
</svg>
