<svg width="315" height="1004" viewBox="0 0 315 1004" fill="none" xmlns="http://www.w3.org/2000/svg">
<mask id="mask0_1_5024" style="mask-type:alpha" maskUnits="userSpaceOnUse" x="0" y="0" width="452" height="1004">
<rect x="452" y="1003.13" width="452" height="1003.13" transform="rotate(-180 452 1003.13)" fill="#D9D9D9"/>
</mask>
<g mask="url(#mask0_1_5024)">
<path fill-rule="evenodd" clip-rule="evenodd" d="M597.574 956.718C406.299 981.354 223.864 909.247 116.619 702.198L50.7448 717.381C42.9051 718.819 40.5432 715.059 41.833 707.849L126.195 511.698L290.107 646.481C296.12 652.451 295.449 657.34 291.361 661.684L237.403 674.757C302.274 780.49 402.826 847.253 569.712 841.489L507.94 914.733L597.574 956.718Z" fill="#343434"/>
<path fill-rule="evenodd" clip-rule="evenodd" d="M77.5927 581.14C52.9467 389.869 125.057 207.435 332.121 100.187L316.926 34.3157C315.502 26.4842 319.262 24.1222 326.459 25.4039L522.613 109.764L387.84 273.684C381.87 279.697 376.978 279.015 372.624 274.93L359.551 220.973C253.825 285.841 187.051 386.396 192.816 553.291L119.571 491.519L77.5927 581.14Z" fill="#343434"/>
<path d="M293.64 834.474C292.822 837.793 293.052 840.908 294.328 843.82C295.57 846.711 297.677 849.052 300.651 850.842C303.94 852.822 307.484 853.336 311.282 852.383C315.025 851.445 317.81 849.334 319.635 846.05C319.952 845.479 320.173 845.04 320.297 844.733C321.876 840.968 321.971 837.309 320.583 833.758C319.356 830.59 317.203 828.079 314.124 826.225C312.374 825.172 310.561 824.486 308.685 824.166C306.788 823.881 304.95 824.037 303.171 824.634L300.7 814.714C304.064 813.786 307.196 813.528 310.096 813.939C312.996 814.351 315.985 815.484 319.064 817.337C324.837 820.812 328.657 825.827 330.523 832.382C332.39 838.937 331.707 845.123 328.473 850.941C325.199 856.831 320.417 860.646 314.128 862.385C307.783 864.139 301.741 863.289 296.003 859.835C290.231 856.36 286.412 851.131 284.549 844.15C282.631 837.184 283.289 830.791 286.523 824.973C286.88 824.33 287.227 823.706 287.565 823.099C287.967 822.627 288.255 822.276 288.429 822.047L318.029 839.866C318.658 840.245 318.912 840.755 318.789 841.396C318.667 842.037 318.347 842.821 317.832 843.749C317.613 844.142 317.455 844.428 317.355 844.606C317.098 845.07 316.899 845.427 316.76 845.677C316.383 846.355 316.036 846.813 315.717 847.05C315.379 847.322 314.947 847.301 314.422 846.985L293.64 834.474Z" fill="white"/>
<path d="M280.518 821.282C277.453 824.043 274.185 825.897 270.713 826.844C267.207 827.755 263.866 827.757 260.688 826.852C257.477 825.911 254.688 824.161 252.321 821.6C250.254 819.364 248.91 817.006 248.288 814.525C247.633 812.008 247.532 809.62 247.985 807.361L243.661 811.256L236.61 803.629L266.932 776.309L273.984 783.937L269.551 787.931C271.874 787.623 274.31 787.907 276.859 788.783C279.338 789.656 281.612 791.211 283.679 793.447C286.013 795.972 287.49 798.871 288.11 802.147C288.697 805.386 288.371 808.687 287.133 812.05C285.825 815.41 283.62 818.487 280.518 821.282ZM258.823 797.597C256.962 799.273 255.708 801.064 255.061 802.969C254.378 804.907 254.256 806.801 254.697 808.652C255.1 810.535 255.953 812.18 257.253 813.587C258.553 814.993 260.1 815.98 261.894 816.545C263.687 817.11 265.609 817.164 267.659 816.705C269.64 816.242 271.542 815.189 273.367 813.546C275.191 811.902 276.463 810.095 277.183 808.124C277.833 806.15 277.973 804.24 277.602 802.392C277.198 800.508 276.363 798.881 275.096 797.511C273.796 796.104 272.232 795.1 270.405 794.499C268.542 793.93 266.62 793.877 264.64 794.339C262.623 794.834 260.684 795.92 258.823 797.597Z" fill="white"/>
<path d="M196.829 754.79C193.76 750.831 192.516 746.7 193.096 742.397C193.607 738.086 196.037 734.246 200.385 730.876L219.309 716.208L225.628 724.361L207.809 738.171C205.286 740.127 203.861 742.256 203.534 744.56C203.168 746.895 203.843 749.168 205.558 751.381C207.273 753.593 209.321 754.833 211.703 755.1C214.016 755.358 216.434 754.509 218.957 752.554L236.775 738.743L243.094 746.896L225.275 760.706C222.752 762.662 221.327 764.791 221 767.095C220.634 769.43 221.309 771.703 223.024 773.916C224.769 776.167 226.832 777.426 229.214 777.693C231.527 777.951 233.945 777.103 236.468 775.147L254.286 761.337L260.605 769.489L228.345 794.492L222.027 786.339L225.928 783.316C223.757 783.321 221.652 782.809 219.612 781.78C217.541 780.712 215.739 779.189 214.205 777.209C212.249 774.686 211.047 772.013 210.6 769.191C210.113 766.398 210.439 763.692 211.576 761.07C208.901 761.466 206.233 761.111 203.572 760.003C200.882 758.857 198.634 757.12 196.829 754.79Z" fill="white"/>
<path d="M181.422 720.843C179.148 720.759 176.874 720.087 174.6 718.825C172.259 717.549 170.276 715.652 168.653 713.133C166.764 710.202 165.778 707.085 165.694 703.782C165.583 700.438 166.42 697.203 168.203 694.077C169.918 690.937 172.515 688.213 175.995 685.907C179.475 683.6 183.018 682.253 186.625 681.866C190.164 681.465 193.442 681.973 196.459 683.39C199.449 684.766 201.889 686.92 203.778 689.851C205.401 692.37 206.326 694.938 206.553 697.557C206.754 700.134 206.462 702.537 205.678 704.765L226.741 690.804L232.328 699.474L182.097 732.769L176.51 724.099L181.422 720.843ZM181.703 694.762C179.656 696.119 178.175 697.719 177.26 699.563C176.277 701.392 175.849 703.267 175.976 705.186C176.076 707.064 176.645 708.808 177.683 710.418C178.694 711.987 180.061 713.202 181.785 714.063C183.441 714.909 185.305 715.264 187.379 715.127C189.426 714.949 191.472 714.181 193.519 712.824C195.566 711.468 197.081 709.874 198.064 708.045C199.02 706.174 199.468 704.286 199.409 702.381C199.282 700.462 198.713 698.718 197.702 697.149C196.664 695.539 195.297 694.324 193.6 693.504C191.877 692.643 189.991 692.302 187.945 692.481C185.871 692.618 183.79 693.378 181.703 694.762Z" fill="white"/>
<path d="M172.469 460.125L170.594 469.87L133.333 461.344C127.322 459.969 122.702 456.546 119.474 451.076C116.213 445.557 115.181 439.69 116.377 433.474C117.565 427.298 120.749 422.521 125.93 419.143C131.11 415.765 136.766 414.777 142.896 416.18C147.196 417.163 150.72 418.828 153.469 421.174C156.178 423.51 158.32 426.743 159.894 430.871C161.638 435.415 162.121 439.712 161.341 443.763C160.685 447.171 159.118 450.455 156.64 453.614L145.056 450.964C146.665 450.16 148.045 448.926 149.197 447.264C150.355 445.561 151.132 443.687 151.525 441.642C152.204 438.113 151.732 434.949 150.11 432.149C148.27 428.965 145.201 426.881 140.902 425.897C137.478 425.114 134.309 425.707 131.394 427.678C128.48 429.649 126.683 432.399 126.004 435.928C125.31 439.537 125.954 442.887 127.936 445.979C129.918 449.07 132.7 451.025 136.283 451.845L172.469 460.125Z" fill="white"/>
<path d="M124.955 402.617L127.666 392.562L171.053 405.48L168.342 415.535L124.955 402.617ZM123.465 396.615C122.955 398.507 121.95 399.805 120.449 400.509C118.949 401.212 117.377 401.319 115.733 400.829C114.128 400.352 112.897 399.431 112.038 398.068C111.19 396.665 111.026 394.998 111.547 393.066C112.015 391.331 113.019 390.118 114.558 389.426C115.949 388.818 117.446 388.753 119.051 389.23C120.616 389.696 121.868 390.623 122.805 392.009C123.713 393.345 123.933 394.88 123.465 396.615Z" fill="white"/>
<path d="M188.918 391.154L185.637 400.52L149.777 387.284C143.992 385.148 139.89 381.175 137.469 375.363C135.024 369.498 134.848 363.579 136.94 357.605C139.02 351.67 142.883 347.372 148.53 344.713C154.178 342.053 159.952 341.812 165.852 343.99C169.989 345.517 173.256 347.615 175.653 350.284C178.011 352.939 179.674 356.404 180.643 360.679C181.72 365.386 181.577 369.685 180.213 373.578C179.066 376.854 177.029 379.889 174.103 382.683L162.955 378.568C164.674 377.983 166.227 376.946 167.614 375.456C169.015 373.928 170.059 372.18 170.748 370.215C171.936 366.823 171.926 363.642 170.716 360.671C169.347 357.293 166.594 354.84 162.456 353.313C159.161 352.097 155.92 352.272 152.733 353.837C149.545 355.403 147.357 357.881 146.169 361.273C144.954 364.742 145.109 368.128 146.633 371.433C148.158 374.738 150.645 377.027 154.093 378.3L188.918 391.154Z" fill="white"/>
<path d="M182.017 301.53C178.684 300.933 175.645 301.381 172.901 302.876C170.175 304.334 168.067 306.631 166.579 309.766C164.932 313.234 164.749 316.858 166.028 320.638C167.288 324.364 169.613 327.037 173.003 328.658C173.592 328.939 174.043 329.132 174.356 329.236C178.196 330.574 181.797 330.417 185.158 328.765C188.158 327.302 190.428 324.948 191.97 321.701C192.845 319.856 193.355 317.973 193.5 316.05C193.607 314.11 193.287 312.26 192.541 310.5L202.057 307.309C203.273 310.651 203.81 313.805 203.669 316.77C203.527 319.735 202.685 322.84 201.144 326.087C198.254 332.174 193.676 336.39 187.409 338.735C181.142 341.081 175.005 340.818 169 337.947C162.92 335.041 158.742 330.463 156.465 324.214C154.168 317.911 154.456 311.734 157.328 305.684C160.218 299.597 165.006 295.368 171.692 292.996C178.359 290.571 184.695 290.793 190.701 293.664C191.364 293.981 192.009 294.29 192.635 294.589C193.136 294.964 193.506 295.231 193.746 295.392L178.929 326.602C178.614 327.266 178.136 327.558 177.496 327.478C176.855 327.399 176.056 327.13 175.098 326.672C174.693 326.478 174.398 326.337 174.214 326.249C173.735 326.02 173.367 325.844 173.109 325.721C172.409 325.386 171.928 325.066 171.666 324.76C171.368 324.436 171.35 323.997 171.613 323.444L182.017 301.53Z" fill="white"/>
<path d="M161.101 269.234L166.249 260.181L219.712 290.084L214.564 299.136L161.101 269.234Z" fill="white"/>
<path d="M185.572 259.001L191.088 250.169L229.781 273.667L224.265 282.499L185.572 259.001ZM185.83 252.923C184.791 254.586 183.439 255.556 181.773 255.834C180.106 256.112 178.54 255.806 177.074 254.916C175.643 254.046 174.703 252.854 174.253 251.339C173.825 249.789 174.141 248.165 175.201 246.468C176.153 244.944 177.479 244.054 179.18 243.797C180.712 243.58 182.193 243.907 183.624 244.776C185.02 245.624 185.978 246.826 186.498 248.384C187.004 249.886 186.781 251.399 185.83 252.923Z" fill="white"/>
<path d="M235.084 265.157L212.77 249.606C207.912 246.221 205.026 241.622 204.112 235.809C203.19 229.941 204.498 224.582 208.037 219.733C211.504 214.983 216.191 212.128 222.097 211.169C228.004 210.209 233.386 211.422 238.245 214.808L260.558 230.359L254.022 239.315L231.406 223.554C229.128 221.966 226.564 221.497 223.713 222.148C220.853 222.743 218.568 224.211 216.858 226.553C215.221 228.796 214.588 231.291 214.959 234.038C215.32 236.728 216.624 238.855 218.868 240.42L241.584 256.251L235.084 265.157Z" fill="white"/>
<path d="M269.127 179.559C266.026 178.121 262.924 177.749 259.821 178.443C256.746 179.107 254.045 180.727 251.717 183.303C249.144 186.151 247.96 189.53 248.168 193.441C248.371 197.295 249.909 200.432 252.782 202.853C253.282 203.274 253.67 203.575 253.947 203.755C257.34 206.027 260.913 206.822 264.664 206.14C268.009 205.543 270.886 203.911 273.295 201.244C274.664 199.729 275.686 198.082 276.36 196.301C277.002 194.494 277.201 192.66 276.957 190.8L287.166 190.276C287.433 193.756 287.086 196.88 286.126 199.647C285.166 202.413 283.481 205.13 281.072 207.797C276.554 212.796 270.9 215.584 264.109 216.16C257.318 216.735 251.377 214.879 246.287 210.589C241.134 206.247 238.307 200.823 237.805 194.316C237.3 187.753 239.292 181.987 243.783 177.017C248.3 172.018 254.163 169.273 261.372 168.782C268.577 168.235 274.725 170.106 279.815 174.396C280.378 174.869 280.924 175.33 281.455 175.777C281.841 176.263 282.13 176.613 282.321 176.827L259.159 202.462C258.666 203.007 258.117 203.158 257.512 202.915C256.906 202.672 256.198 202.208 255.386 201.524C255.042 201.235 254.792 201.024 254.636 200.893C254.23 200.551 253.918 200.287 253.699 200.103C253.106 199.603 252.723 199.174 252.552 198.816C252.349 198.432 252.453 198.012 252.864 197.558L269.127 179.559Z" fill="white"/>
<path d="M284.589 169.21C282.466 165.672 281.273 162.109 281.01 158.519C280.788 154.904 281.425 151.624 282.923 148.679C284.462 145.708 286.715 143.307 289.682 141.474C292.273 139.874 294.845 139.007 297.399 138.872C299.995 138.712 302.358 139.071 304.488 139.949L301.494 134.958L310.331 129.5L331.331 164.497L322.493 169.955L319.423 164.839C319.28 167.178 318.535 169.514 317.186 171.848C315.854 174.114 313.892 176.047 311.301 177.647C308.376 179.454 305.247 180.348 301.914 180.328C298.622 180.283 295.445 179.331 292.381 177.471C289.334 175.543 286.737 172.789 284.589 169.21ZM311.993 152.457C310.705 150.309 309.188 148.735 307.442 147.735C305.671 146.693 303.835 146.211 301.935 146.288C300.008 146.323 298.23 146.844 296.601 147.851C294.971 148.857 293.707 150.186 292.808 151.838C291.909 153.49 291.489 155.366 291.546 157.467C291.62 159.499 292.289 161.568 293.552 163.674C294.816 165.779 296.346 167.374 298.142 168.458C299.954 169.475 301.803 169.978 303.687 169.969C305.613 169.933 307.37 169.426 308.958 168.445C310.588 167.438 311.873 166.096 312.814 164.418C313.729 162.699 314.15 160.823 314.076 158.79C313.976 156.716 313.282 154.605 311.993 152.457Z" fill="white"/>
</g>
</svg>
