<svg width="947" height="944" viewBox="0 0 947 944" fill="none" xmlns="http://www.w3.org/2000/svg">
<path fill-rule="evenodd" clip-rule="evenodd" d="M390.686 68.7272C184.35 119.268 81.3656 265.335 62.1458 439.983L118.55 369.623L170.151 440.033C200.849 291.028 281.535 216.317 389.072 181.561V232.142C392.041 236.693 396.226 238.336 402.802 234.293L557.308 118.073L401.726 1.29592C395.618 -1.39297 391.782 -0.10822 391.374 7.14181L390.686 68.7272ZM877.5 388.688C826.959 182.338 680.894 79.3518 506.247 60.1415L576.596 116.537L506.188 168.139C655.201 198.838 729.911 279.535 764.667 387.064H714.087C709.536 390.044 707.882 394.228 711.926 400.804L828.154 555.303L944.931 399.718C947.61 393.62 946.325 389.784 939.085 389.366L877.5 388.688ZM886.079 503.241C866.869 677.877 763.883 823.941 557.542 874.482L556.855 936.066C556.436 943.326 552.61 944.601 546.502 941.922L390.917 825.146L545.416 708.918C551.992 704.885 556.177 706.518 559.156 711.069V761.649C666.686 726.893 747.383 652.183 778.081 503.181L829.684 573.589L886.079 503.241ZM68.7218 554.522C119.264 760.868 265.332 863.852 439.983 883.072L369.622 826.668L440.033 775.076C291.026 744.369 216.314 663.683 181.557 556.146H232.139C236.69 553.177 238.333 548.992 234.29 542.416L118.069 387.91L1.28953 543.492C-1.38944 549.59 -0.104752 553.436 7.13543 553.844L68.7218 554.522Z" fill="#FF0000"/>
</svg>
