<svg width="60" height="60" viewBox="0 0 60 60" fill="none" xmlns="http://www.w3.org/2000/svg">
<path d="M42.5 25C39.0389 25 35.6554 26.0264 32.7776 27.9493C29.8997 29.8722 27.6567 32.6053 26.3321 35.803C25.0076 39.0008 24.661 42.5194 25.3363 45.9141C26.0115 49.3088 27.6782 52.427 30.1257 54.8744C32.5731 57.3218 35.6913 58.9885 39.086 59.6637C42.4806 60.339 45.9993 59.9924 49.197 58.6679C52.3947 57.3434 55.1278 55.1003 57.0508 52.2225C58.9737 49.3446 60 45.9612 60 42.5C59.9947 37.8603 58.1493 33.4122 54.8686 30.1315C51.5878 26.8507 47.1397 25.0053 42.5 25ZM49.2675 49.2675C48.7987 49.7362 48.1629 49.9995 47.5 49.9995C46.8371 49.9995 46.2014 49.7362 45.7325 49.2675L40.7325 44.2675C40.2637 43.7988 40.0002 43.163 40 42.5V35C40 34.337 40.2634 33.7011 40.7323 33.2322C41.2011 32.7634 41.837 32.5 42.5 32.5C43.1631 32.5 43.799 32.7634 44.2678 33.2322C44.7366 33.7011 45 34.337 45 35V41.465L49.2675 45.7325C49.7362 46.2013 49.9995 46.8371 49.9995 47.5C49.9995 48.1629 49.7362 48.7987 49.2675 49.2675ZM21.185 27.5C18.4655 27.5 15.8071 26.6936 13.5459 25.1827C11.2848 23.6718 9.52239 21.5244 8.48169 19.0119C7.44098 16.4994 7.16869 13.7348 7.69923 11.0675C8.22978 8.40028 9.53934 5.95026 11.4623 4.02729C13.3853 2.10432 15.8353 0.794755 18.5025 0.264209C21.1698 -0.266338 23.9344 0.00595771 26.4469 1.04666C28.9594 2.08737 31.1069 3.84974 32.6177 6.11092C34.1286 8.37209 34.935 11.0305 34.935 13.75C34.9311 17.3955 33.4811 20.8906 30.9034 23.4683C28.3256 26.0461 24.8305 27.496 21.185 27.5ZM28.39 60H2.50003C2.1694 60 1.84205 59.9345 1.53693 59.8071C1.23181 59.6798 0.954978 59.4931 0.722468 59.2581C0.489959 59.023 0.306386 58.7442 0.182379 58.4377C0.0583715 58.1312 -0.00360775 57.8031 2.91965e-05 57.4725C-0.011486 52.2858 1.54737 47.2172 4.47152 42.9334C7.39566 38.6496 11.5481 35.3513 16.3825 33.4725C18.3023 32.7904 20.3307 32.465 22.3675 32.5125C21.9651 33.3199 21.6112 34.1505 21.3075 35C20.4418 37.4057 19.9994 39.9432 20 42.5C20.0009 45.8587 20.7551 49.1745 22.2071 52.2031C23.6591 55.2317 25.7719 57.8961 28.39 60Z" fill="#EC1721"/>
</svg>
