<svg width="60" height="60" viewBox="0 0 60 60" fill="none" xmlns="http://www.w3.org/2000/svg">
<path d="M60 17.5V20H0V17.5C0 10.5975 5.5975 5 12.5 5H15V2.5C15 1.12 16.12 0 17.5 0C18.88 0 20 1.12 20 2.5V5H40V2.5C40 1.12 41.12 0 42.5 0C43.88 0 45 1.12 45 2.5V5H47.5C54.4025 5 60 10.5975 60 17.5ZM60 42.5C60 52.15 52.1475 60 42.5 60C32.8525 60 25 52.15 25 42.5C25 32.85 32.8525 25 42.5 25C52.1475 25 60 32.85 60 42.5ZM47.5 43.965L45 41.465V37.5C45 36.12 43.88 35 42.5 35C41.12 35 40 36.12 40 37.5V42.5C40 43.1625 40.2625 43.8 40.7325 44.2675L43.965 47.5C44.94 48.475 46.525 48.475 47.5 47.5C48.475 46.525 48.475 44.94 47.5 43.965ZM20 42.5C20 35.4275 23.27 29.125 28.3725 25H0V47.5C0 54.4025 5.5975 60 12.5 60H28.3725C23.27 55.875 20 49.5725 20 42.5Z" fill="#EC1721"/>
</svg>
