<svg width="60" height="60" viewBox="0 0 60 60" fill="none" xmlns="http://www.w3.org/2000/svg">
<path d="M38.41 6.59343C33.7975 1.98093 27.405 -0.416568 20.8725 0.0584324C9.5575 0.858432 0 11.4734 0 23.2409V35.8359C0 40.8884 4.105 45.0009 9.1525 45.0009H20.345C33.3125 45.0009 44.1175 35.8334 44.9425 24.1284C45.405 17.5959 43.0225 11.2034 38.41 6.59093V6.59343ZM11.25 26.2509C9.18 26.2509 7.5 24.5709 7.5 22.5009C7.5 20.4309 9.18 18.7509 11.25 18.7509C13.32 18.7509 15 20.4309 15 22.5009C15 24.5709 13.32 26.2509 11.25 26.2509ZM22.5 26.2509C20.43 26.2509 18.75 24.5709 18.75 22.5009C18.75 20.4309 20.43 18.7509 22.5 18.7509C24.57 18.7509 26.25 20.4309 26.25 22.5009C26.25 24.5709 24.57 26.2509 22.5 26.2509ZM33.75 26.2509C31.68 26.2509 30 24.5709 30 22.5009C30 20.4309 31.68 18.7509 33.75 18.7509C35.82 18.7509 37.5 20.4309 37.5 22.5009C37.5 24.5709 35.82 26.2509 33.75 26.2509ZM60 40.0009V52.5009C60 56.6434 56.6425 60.0009 52.5 60.0009H40C32.6125 60.0009 26.1625 55.9634 22.7 49.9909C22.6775 49.9584 22.66 49.9309 22.64 49.8984C37.18 48.8584 48.97 38.0809 49.93 24.4809C49.9725 23.8834 49.9575 23.2884 49.96 22.6934C49.97 22.6959 49.98 22.6984 49.99 22.7009C55.9625 26.1634 60 32.6134 60 40.0009Z" fill="#EC1721"/>
</svg>
