<svg width="60" height="60" viewBox="0 0 60 60" fill="none" xmlns="http://www.w3.org/2000/svg">
<path d="M56.2466 22.4972H54.9968V19.9975C54.9968 13.1059 49.39 7.49906 42.4983 7.49906H32.4996V2.49969C32.4996 1.11986 31.3822 0 29.9999 0C28.6176 0 27.5002 1.11986 27.5002 2.49969V7.49906H17.5015C10.6098 7.49906 5.00304 13.1059 5.00304 19.9975V22.4972H3.75319C1.68595 22.4972 0.00366211 24.1795 0.00366211 26.2467V33.7458C0.00366211 35.813 1.68595 37.4953 3.75319 37.4953H5.00304V39.995C5.00304 46.8866 10.6098 52.4934 17.5015 52.4934H36.7416L46.6478 59.0976C47.5477 59.6975 48.5851 60 49.625 60C50.4948 60 51.3647 59.79 52.1621 59.3626C53.9094 58.4252 54.9968 56.6129 54.9968 54.6282V37.4928H56.2466C58.3139 37.4928 59.9962 35.8105 59.9962 33.7433V26.2442C59.9962 24.177 58.3139 22.4947 56.2466 22.4947V22.4972ZM21.251 19.9975C23.3207 19.9975 25.0005 21.6773 25.0005 23.747C25.0005 25.8168 23.3207 27.4966 21.251 27.4966C19.1813 27.4966 17.5015 25.8168 17.5015 23.747C17.5015 21.6773 19.1813 19.9975 21.251 19.9975ZM41.326 38.9276C38.7338 40.5549 34.6618 42.4947 29.9999 42.4947C25.338 42.4947 21.266 40.5549 18.6738 38.9276C17.504 38.1952 17.1515 36.6504 17.8864 35.4831C18.6213 34.3157 20.1636 33.9608 21.331 34.6932C23.3682 35.973 26.5278 37.4953 30.0024 37.4953C33.477 37.4953 36.6341 35.973 38.6738 34.6932C39.8387 33.9583 41.386 34.3132 42.1184 35.4831C42.8533 36.6529 42.4984 38.1952 41.331 38.9276H41.326ZM38.7488 27.4966C36.6791 27.4966 34.9993 25.8168 34.9993 23.747C34.9993 21.6773 36.6791 19.9975 38.7488 19.9975C40.8186 19.9975 42.4983 21.6773 42.4983 23.747C42.4983 25.8168 40.8186 27.4966 38.7488 27.4966Z" fill="#EC1721"/>
</svg>
