<svg width="60" height="60" viewBox="0 0 60 60" fill="none" xmlns="http://www.w3.org/2000/svg">
<path d="M7.50045 15.6375V5.22246C7.44186 2.4007 9.67873 0.0642187 12.5005 0H22.5005C23.9426 0 25.1117 1.16906 25.1117 2.61129C25.1117 4.05352 23.9427 5.22258 22.5005 5.22258H16.0979L30.863 20.6675C30.9643 20.7765 31.1066 20.8382 31.2554 20.8376C31.4033 20.8395 31.545 20.7786 31.6454 20.6701L48.8605 2.7225C51.2655 0.297539 54.6705 4.07754 52.3955 6.41004L35.1829 24.35C34.1632 25.4305 32.7437 26.0435 31.258 26.045C29.7696 26.042 28.3482 25.4263 27.328 24.3425L12.5005 8.83254V15.6375C12.5005 17.0182 11.3812 18.1375 10.0005 18.1375C8.61983 18.1375 7.50045 17.0182 7.50045 15.6375ZM56.113 40.1375C44.8905 28.4426 15.113 28.44 3.89049 40.1375C1.3549 42.7793 -0.0419714 46.3111 0.00045044 49.9725L0.20295 52.9075C0.128888 56.7402 3.16803 59.9112 7.00041 60C7.11045 60 13.3079 59.16 13.3079 59.16C17.002 58.9794 19.9098 55.941 19.928 52.2425L20.323 47.5475C23.3935 46.2829 26.6797 45.6241 30.0004 45.6075C33.3235 45.6555 36.6088 46.3219 39.688 47.5725L40.078 52.2425C40.0961 55.9411 43.0038 58.9794 46.698 59.16C46.698 59.16 52.8955 60 53.0055 60C56.7778 59.9386 59.8036 56.8628 59.803 53.09L60.0005 49.7975C60.0053 46.1972 58.6104 42.7359 56.1104 40.145L56.113 40.1375Z" fill="#EC1721"/>
</svg>
