<svg width="60" height="60" viewBox="0 0 60 60" fill="none" xmlns="http://www.w3.org/2000/svg">
<path d="M33.2075 18.7002C31.175 20.7327 30.0325 23.4877 30.0325 26.3627V28.7502C30.0325 29.4402 30.5925 30.0002 31.2825 30.0002H33.67C36.5425 30.0002 39.3 28.8577 41.33 26.8277L58.1175 10.0402C60.2425 7.91522 60.65 4.45022 58.7475 2.12272C56.56 -0.552284 52.6075 -0.699784 50.225 1.68272L33.2075 18.7002ZM44.8675 30.3602C41.88 33.3502 37.9025 34.9977 33.67 34.9977H30.0325C27.2725 34.9977 25.0325 32.7577 25.0325 29.9977V26.3602C25.0325 22.1302 26.68 18.1552 29.67 15.1627L43.34 1.49772C41.5975 0.572716 39.64 0.000216511 37.5325 0.000216511H12.5325C5.63997 0.000216511 0.0324707 5.60772 0.0324707 12.5002V47.5002C0.0324707 54.3927 5.63997 60.0002 12.5325 60.0002H37.5325C44.425 60.0002 50.0325 54.3927 50.0325 47.5002V25.1977L44.8675 30.3627V30.3602ZM20.45 41.6652L16.2325 45.8827C15.155 46.9602 13.745 47.5027 12.33 47.5027C10.9975 47.5027 9.66497 47.0202 8.60247 46.0477L6.92997 44.6002C5.88747 43.6952 5.77497 42.1177 6.67747 41.0727C7.58497 40.0302 9.16247 39.9177 10.205 40.8202L11.9275 42.3152C12.185 42.5477 12.4975 42.5452 12.695 42.3477L16.9125 38.1302C17.89 37.1527 19.47 37.1527 20.4475 38.1302C21.425 39.1077 21.4275 40.6877 20.45 41.6652ZM20.45 29.1652L16.2325 33.3827C15.155 34.4602 13.745 35.0027 12.33 35.0027C10.9975 35.0027 9.66497 34.5202 8.60247 33.5477L6.92997 32.1002C5.88747 31.1952 5.77497 29.6152 6.67747 28.5727C7.58497 27.5252 9.16247 27.4202 10.205 28.3202L11.9275 29.8152C12.185 30.0477 12.4975 30.0452 12.695 29.8477L16.9125 25.6302C17.89 24.6527 19.47 24.6527 20.4475 25.6302C21.425 26.6077 21.4275 28.1877 20.45 29.1652ZM20.45 16.7652L16.2325 20.9827C15.155 22.0602 13.745 22.6027 12.33 22.6027C10.9975 22.6027 9.66497 22.1202 8.60247 21.1477L6.92997 19.7002C5.88747 18.7952 5.77497 17.2152 6.67747 16.1727C7.58497 15.1277 9.16247 15.0202 10.205 15.9202L11.9275 17.4152C12.185 17.6502 12.4975 17.6452 12.695 17.4477L16.9125 13.2302C17.89 12.2527 19.47 12.2527 20.4475 13.2302C21.425 14.2077 21.4275 15.7877 20.45 16.7652ZM40.0325 44.9977H30.0325C28.65 44.9977 27.5325 43.8802 27.5325 42.4977C27.5325 41.1152 28.65 39.9977 30.0325 39.9977H40.0325C41.415 39.9977 42.5325 41.1152 42.5325 42.4977C42.5325 43.8802 41.415 44.9977 40.0325 44.9977Z" fill="#EC1721"/>
</svg>
