<svg width="66" height="60" viewBox="0 0 66 60" fill="none" xmlns="http://www.w3.org/2000/svg">
<path d="M0.272705 21.8182V46.3636C0.277036 49.9789 1.71511 53.4448 4.27149 56.0012C6.82786 58.5576 10.2938 59.9957 13.9091 60H52.0909C55.7061 59.9957 59.1721 58.5576 61.7285 56.0012C64.2849 53.4448 65.7229 49.9789 65.7272 46.3636V21.8182H0.272705ZM38.4545 49.0909H16.6363C15.913 49.0909 15.2193 48.8036 14.7079 48.2921C14.1964 47.7806 13.9091 47.087 13.9091 46.3636C13.9091 45.6403 14.1964 44.9466 14.7079 44.4352C15.2193 43.9237 15.913 43.6364 16.6363 43.6364H38.4545C39.1778 43.6364 39.8715 43.9237 40.383 44.4352C40.8945 44.9466 41.1818 45.6403 41.1818 46.3636C41.1818 47.087 40.8945 47.7806 40.383 48.2921C39.8715 48.8036 39.1778 49.0909 38.4545 49.0909ZM49.3636 38.1818H16.6363C15.913 38.1818 15.2193 37.8945 14.7079 37.383C14.1964 36.8716 13.9091 36.1779 13.9091 35.4545C13.9091 34.7312 14.1964 34.0375 14.7079 33.5261C15.2193 33.0146 15.913 32.7273 16.6363 32.7273H49.3636C50.0869 32.7273 50.7806 33.0146 51.2921 33.5261C51.8036 34.0375 52.0909 34.7312 52.0909 35.4545C52.0909 36.1779 51.8036 36.8716 51.2921 37.383C50.7806 37.8945 50.0869 38.1818 49.3636 38.1818ZM65.7272 16.3636V13.6364C65.7229 10.0211 64.2849 6.55516 61.7285 3.99878C59.1721 1.44241 55.7061 0.00433052 52.0909 0H13.9091C10.2938 0.00433052 6.82786 1.44241 4.27149 3.99878C1.71511 6.55516 0.277036 10.0211 0.272705 13.6364L0.272705 16.3636H65.7272ZM27.5454 5.45455C28.0848 5.45455 28.6121 5.6145 29.0606 5.91417C29.5091 6.21385 29.8587 6.63979 30.0651 7.13814C30.2715 7.63648 30.3255 8.18484 30.2203 8.71388C30.1151 9.24292 29.8553 9.72888 29.4739 10.1103C29.0925 10.4917 28.6065 10.7515 28.0775 10.8567C27.5485 10.9619 27.0001 10.9079 26.5017 10.7015C26.0034 10.4951 25.5775 10.1455 25.2778 9.69701C24.9781 9.24851 24.8182 8.72122 24.8182 8.18182C24.8182 7.4585 25.1055 6.76481 25.617 6.25335C26.1284 5.74188 26.8221 5.45455 27.5454 5.45455ZM19.3636 5.45455C19.903 5.45455 20.4303 5.6145 20.8788 5.91417C21.3273 6.21385 21.6769 6.63979 21.8833 7.13814C22.0897 7.63648 22.1437 8.18484 22.0385 8.71388C21.9333 9.24292 21.6735 9.72888 21.2921 10.1103C20.9107 10.4917 20.4247 10.7515 19.8957 10.8567C19.3666 10.9619 18.8183 10.9079 18.3199 10.7015C17.8216 10.4951 17.3956 10.1455 17.096 9.69701C16.7963 9.24851 16.6363 8.72122 16.6363 8.18182C16.6363 7.4585 16.9237 6.76481 17.4351 6.25335C17.9466 5.74188 18.6403 5.45455 19.3636 5.45455ZM11.1818 5.45455C11.7212 5.45455 12.2485 5.6145 12.697 5.91417C13.1455 6.21385 13.495 6.63979 13.7015 7.13814C13.9079 7.63648 13.9619 8.18484 13.8567 8.71388C13.7514 9.24292 13.4917 9.72888 13.1103 10.1103C12.7289 10.4917 12.2429 10.7515 11.7139 10.8567C11.1848 10.9619 10.6365 10.9079 10.1381 10.7015C9.63977 10.4951 9.21383 10.1455 8.91415 9.69701C8.61448 9.24851 8.45452 8.72122 8.45452 8.18182C8.45452 7.4585 8.74186 6.76481 9.25332 6.25335C9.76479 5.74188 10.4585 5.45455 11.1818 5.45455Z" fill="#EC1721"/>
</svg>
