<svg width="101" height="89" viewBox="0 0 101 89" fill="none" xmlns="http://www.w3.org/2000/svg">
<path d="M16.5687 45.5088C28.1078 43.8764 34.3622 43.5273 45.194 43.761L44.5267 57.5008L50.9839 68.951C45.1843 71.3904 41.3261 72.772 34.2254 75.2387C25.8487 78.0265 20.4026 79.5734 17.6766 78.3558C15.4338 76.9155 15.3888 75.4672 17.1061 73.3107C22.3365 71.2438 23.4292 67.9039 23.4763 61.013C20.9722 54.2773 14.4937 52.2216 12.9986 52.0077C11.5034 51.7938 11.1033 48.406 11.6605 47.4242C12.2178 46.4424 13.6782 46.1882 16.5687 45.5088Z" fill="#161616"/>
<ellipse cx="47.5468" cy="19.4219" rx="8.43307" ry="8.41627" transform="rotate(75.5019 47.5468 19.4219)" fill="#161616"/>
<ellipse cx="66.3796" cy="14.8941" rx="8.43307" ry="8.41627" transform="rotate(75.5019 66.3796 14.8941)" fill="#161616"/>
<circle cx="64.2652" cy="44.3643" r="27.9263" transform="rotate(75.5019 64.2652 44.3643)" fill="#161616"/>
<circle cx="64.2652" cy="44.364" r="24.1493" transform="rotate(75.5019 64.2652 44.364)" fill="#FF0000"/>
<ellipse cx="63.0775" cy="36.7635" rx="4.17776" ry="9.94826" transform="rotate(-23.2948 63.0775 36.7635)" fill="white"/>
<ellipse cx="63.0775" cy="36.7635" rx="4.17776" ry="9.94826" transform="rotate(-23.2948 63.0775 36.7635)" fill="white"/>
<ellipse cx="76.7002" cy="31.0463" rx="2.95565" ry="6.95447" transform="rotate(-23.2948 76.7002 31.0463)" fill="white"/>
<ellipse cx="76.7002" cy="31.0463" rx="2.95565" ry="6.95447" transform="rotate(-23.2948 76.7002 31.0463)" fill="white"/>
<circle cx="87.6949" cy="59.6572" r="7.22059" transform="rotate(75.5019 87.6949 59.6572)" fill="#232323"/>
<circle cx="87.6949" cy="59.6572" r="5.73312" transform="rotate(75.5019 87.6949 59.6572)" fill="#FF0000"/>
<path d="M92.3934 57.4959C92.334 57.4433 92.5617 57.4524 92.5617 57.4524C93.1973 57.8268 93.1973 57.8268 92.7788 56.9811C91.1874 54.6421 89.5584 53.5783 86.307 54.0353C83.0555 54.4922 81.9624 58.944 81.9624 58.944C85.8441 54.6894 88.0381 53.6234 92.3934 57.4959Z" fill="#CB0000"/>
<circle cx="72.3801" cy="65.9473" r="7.20103" transform="rotate(75.5019 72.3801 65.9473)" fill="#232323"/>
<circle cx="72.5353" cy="65.9042" r="5.47621" transform="rotate(75.5019 72.5353 65.9042)" fill="#FF0000"/>
<path fill-rule="evenodd" clip-rule="evenodd" d="M46.9374 67.1895C48.5222 68.3479 48.8683 70.5743 47.7098 72.1592C46.5514 73.744 44.3249 74.0901 42.7401 72.9316C41.1553 71.7732 40.8092 69.5468 41.9676 67.9619C43.1261 66.3771 45.3525 66.031 46.9374 67.1895Z" fill="white"/>
<path fill-rule="evenodd" clip-rule="evenodd" d="M41.2678 67.0064C42.6169 65.531 44.5433 64.8804 46.7772 65.801L47.197 65.2398C47.2494 65.176 47.2933 65.1899 47.3313 65.2556L47.9757 67.3725L45.7767 67.4032C45.6892 67.3962 45.6618 67.353 45.6651 67.2913L46.0047 66.8266C44.784 66.4242 43.5415 66.569 42.2591 67.7317L42.2581 66.7386L41.2678 67.0064Z" fill="white"/>
<path fill-rule="evenodd" clip-rule="evenodd" d="M47.8928 66.499C49.3682 67.8481 50.0188 69.7744 49.0982 72.0084L49.6594 72.4281C49.7231 72.4806 49.7091 72.5244 49.6436 72.5624L47.5267 73.2068L47.4959 71.0078C47.5029 70.9203 47.5462 70.893 47.608 70.8962L48.0726 71.2358C48.475 70.0152 48.3303 68.7726 47.1674 67.4902L48.1605 67.4892L47.8928 66.499Z" fill="white"/>
<path fill-rule="evenodd" clip-rule="evenodd" d="M48.409 73.1135C47.06 74.5888 45.1337 75.2394 42.8998 74.3189L42.48 74.88C42.4274 74.9439 42.3837 74.9299 42.3456 74.8643L41.7012 72.7474L43.9002 72.7166C43.9876 72.7237 44.0151 72.7668 44.0119 72.8286L43.6723 73.2932C44.8929 73.6956 46.1355 73.5509 47.4178 72.3882L47.4189 73.3813L48.409 73.1135Z" fill="white"/>
<path fill-rule="evenodd" clip-rule="evenodd" d="M41.784 73.6212C40.3086 72.2721 39.658 70.3458 40.5786 68.1118L40.0174 67.6921C39.9537 67.6397 39.9677 67.5957 40.0332 67.5577L42.1501 66.9134L42.1807 69.1123C42.1737 69.1999 42.1306 69.2273 42.0688 69.224L41.6042 68.8843C41.2017 70.1051 41.3465 71.3476 42.5092 72.63L41.5162 72.6309L41.784 73.6212Z" fill="white"/>
<path fill-rule="evenodd" clip-rule="evenodd" d="M45.3818 69.9836L46.8719 71.0728L42.2795 71.3232L45.3818 69.9836Z" fill="#232323"/>
<path fill-rule="evenodd" clip-rule="evenodd" d="M44.439 70.0296L42.949 68.9404L47.5413 68.69L44.439 70.0296Z" fill="#232323"/>
</svg>
