<svg width="69" height="83" viewBox="0 0 69 83" fill="none" xmlns="http://www.w3.org/2000/svg">
<ellipse cx="6.79659" cy="6.64556" rx="6.79659" ry="6.64556" transform="matrix(-0.992546 -0.121869 -0.121869 0.992546 67.5166 17.0601)" fill="#161616"/>
<circle cx="6.64556" cy="6.64556" r="6.64556" transform="matrix(-0.992546 -0.121869 -0.121869 0.992546 55.166 6.10986)" fill="#161616"/>
<circle cx="35.9214" cy="34.1111" r="23.7948" transform="rotate(7 35.9214 34.1111)" fill="#161616"/>
<circle cx="35.9216" cy="34.1115" r="20.5766" transform="rotate(7 35.9216 34.1115)" fill="#FF0000"/>
<ellipse cx="35.8551" cy="31.4804" rx="3.55968" ry="8.47648" transform="rotate(7 35.8551 31.4804)" fill="white"/>
<ellipse cx="35.8551" cy="31.4804" rx="3.55968" ry="8.47648" transform="rotate(7 35.8551 31.4804)" fill="white"/>
<ellipse cx="25.1818" cy="27.2315" rx="2.71864" ry="6.49452" transform="rotate(7 25.1818 27.2315)" fill="white"/>
<ellipse cx="25.1818" cy="27.2315" rx="2.71864" ry="6.49452" transform="rotate(7 25.1818 27.2315)" fill="white"/>
<path d="M16.6977 72.8842C18.1568 64.7185 19.3843 60.4172 22.1933 53.1631L33.2305 56.8113L44.1239 55.1196C44.7101 59.6005 44.9034 62.5253 45.1973 67.8905C45.4444 74.1914 45.3886 78.2261 43.7372 79.782C42.0211 80.9601 40.8298 80.6533 39.4873 78.9927C39.0671 74.9825 36.6092 73.4678 31.0042 71.8321C24.9089 71.954 21.6673 75.8467 21.1315 76.8057C20.5957 77.7647 17.7378 77.2462 17.0723 76.6417C16.4068 76.0372 16.5527 74.9926 16.6977 72.8842Z" fill="#161616"/>
<path fill-rule="evenodd" clip-rule="evenodd" d="M32.9097 58.4834C35.2112 58.7659 36.8497 60.8631 36.5671 63.1646C36.2845 65.4661 34.1873 67.1046 31.8859 66.822C29.5844 66.5394 27.9459 64.4422 28.2285 62.1407C28.5111 59.8393 30.6083 58.2008 32.9097 58.4834Z" fill="white"/>
<path fill-rule="evenodd" clip-rule="evenodd" d="M26.9569 61.5579C27.4992 59.2596 29.1116 57.4797 31.9455 57.1433L32.0555 56.3229C32.0729 56.2269 32.1261 56.216 32.2031 56.2619L34.0863 58.0744L31.8359 59.3718C31.7416 59.4149 31.6885 59.3862 31.6563 59.3206L31.7392 58.6459C30.2484 58.9335 29.0502 59.798 28.3969 61.7354L27.8242 60.7117L26.9569 61.5579Z" fill="white"/>
<path fill-rule="evenodd" clip-rule="evenodd" d="M33.4979 57.2208C35.7963 57.763 37.5762 59.3754 37.9125 62.2094L38.733 62.3193C38.8289 62.3368 38.8397 62.39 38.794 62.467L36.9815 64.3501L35.684 62.0998C35.6408 62.0055 35.6697 61.9524 35.7353 61.9201L36.41 62.003C36.1224 60.5124 35.2579 59.314 33.3203 58.6607L34.3441 58.088L33.4979 57.2208Z" fill="white"/>
<path fill-rule="evenodd" clip-rule="evenodd" d="M37.8381 63.7466C37.2959 66.0448 35.6835 67.8247 32.8496 68.1611L32.7395 68.9815C32.7221 69.0777 32.669 69.0884 32.5919 69.0427L30.7088 67.2302L32.9591 65.9326C33.0534 65.8896 33.1065 65.9182 33.1388 65.9838L33.0559 66.6586C34.5465 66.3709 35.7449 65.5064 36.3982 63.569L36.9709 64.5927L37.8381 63.7466Z" fill="white"/>
<path fill-rule="evenodd" clip-rule="evenodd" d="M31.2972 68.0834C28.9989 67.5411 27.219 65.9287 26.8826 63.0947L26.0622 62.9848C25.9662 62.9675 25.9554 62.9141 26.0011 62.8372L27.8136 60.954L29.111 63.2044C29.1542 63.2987 29.1254 63.3519 29.0598 63.384L28.3851 63.3011C28.6727 64.7919 29.5372 65.9901 31.4746 66.6436L30.4509 67.2161L31.2972 68.0834Z" fill="white"/>
<path fill-rule="evenodd" clip-rule="evenodd" d="M32.914 62.2612L35.0779 62.5269L30.4854 65.4287L32.914 62.2612Z" fill="#232323"/>
<path fill-rule="evenodd" clip-rule="evenodd" d="M31.9675 62.8506L29.8037 62.585L34.3962 59.6832L31.9675 62.8506Z" fill="#232323"/>
<circle cx="46.7646" cy="59.4158" r="6.13568" transform="rotate(7 46.7646 59.4158)" fill="#232323"/>
<circle cx="46.7789" cy="59.2795" r="4.66604" transform="rotate(7 46.7789 59.2795)" fill="#FF0000"/>
<circle cx="11.6344" cy="31.7586" r="6.13568" transform="rotate(7 11.6344 31.7586)" fill="#232323"/>
<circle cx="11.6493" cy="31.6223" r="4.66604" transform="rotate(7 11.6493 31.6223)" fill="#FF0000"/>
</svg>
