<svg width="74" height="89" viewBox="0 0 74 89" fill="none" xmlns="http://www.w3.org/2000/svg">
<path d="M19.2502 83.022C19.8361 72.2917 20.7877 66.7932 23.2502 57.022L38.2502 60.022L51.2502 56.022C52.709 61.6913 54.0273 65.1695 55.2502 72.022C56.5606 80.085 57.1248 85.7606 55.2502 88.022C53.2331 89.8078 51.2352 88.9454 49.2502 87.022C48.0788 81.9318 44.7029 81.2403 37.2502 80.022C29.4452 81.141 25.7869 86.7042 25.2502 88.022C24.7136 89.3397 21.1998 88.6942 20.2502 88.022C19.3007 87.3497 19.3964 85.756 19.2502 83.022Z" fill="#161616"/>
<ellipse cx="9.75024" cy="13.0024" rx="9.5" ry="9" fill="#161616"/>
<ellipse cx="63.7502" cy="13.0024" rx="9.5" ry="9" fill="#161616"/>
<ellipse cx="37.2502" cy="30.5024" rx="31" ry="30.5" fill="#161616"/>
<circle cx="37.7502" cy="30.5" r="26.5" fill="#FF0000"/>
<ellipse cx="25.7502" cy="26" rx="4.5" ry="11" fill="white"/>
<ellipse cx="25.7502" cy="26" rx="4.5" ry="11" fill="white"/>
<ellipse cx="48.7502" cy="26" rx="4.5" ry="11" fill="white"/>
<ellipse cx="48.7502" cy="26" rx="4.5" ry="11" fill="white"/>
<ellipse cx="18.2502" cy="62.5" rx="8" ry="7.5" fill="#232323"/>
<ellipse cx="18.7502" cy="62" rx="6.5" ry="6" fill="#FF0000"/>
<path d="M20.2502 50C19.5467 52.2581 18.2877 53.5693 16.2502 55L21.2502 56L25.2502 59C26.0044 57.5567 26.7502 57.0687 26.2502 55C24.5244 51.4876 23.2926 49.8598 20.2502 50Z" fill="#232323"/>
<path d="M21.2502 51C20.6432 53.2203 18.1517 55.8721 18.2502 56C18.3487 56.1279 23.2502 59 23.2502 59C24.3764 58.0297 24.5602 57.0673 24.2502 55C23.4503 52.2053 22.7147 51.2893 21.2502 51Z" fill="#FF0000"/>
<path d="M18.2504 57C20.2756 54.6423 21.6148 51.7173 21.2504 51C20.1413 53.0136 19.2695 54.064 17.2504 56C14.4112 57.0298 12.6466 58.4829 12.2504 62C11.8541 65.5171 16.2504 68 16.2504 68C12.8947 62.8001 13.0906 60.5007 18.2504 57Z" fill="#CB0000"/>
<circle cx="55.2502" cy="61" r="8" fill="#232323"/>
<circle cx="55.2502" cy="61" r="6" fill="#FF0000"/>
<path fill-rule="evenodd" clip-rule="evenodd" d="M37.2502 63C39.4582 63 41.2502 64.792 41.2502 67C41.2502 69.208 39.4582 71 37.2502 71C35.0422 71 33.2502 69.208 33.2502 67C33.2502 64.792 35.0422 63 37.2502 63Z" fill="white"/>
<path fill-rule="evenodd" clip-rule="evenodd" d="M32.2502 67C32.4831 64.6186 33.75 62.6891 36.2502 62V61C36.1762 60.9633 36.2552 60.9011 36.2502 61L38.2502 63L36.2502 64C36.1706 64.0551 36.2862 64.0621 36.2502 64V63C34.9472 63.4739 33.6222 64.9683 33.2502 67V66L32.2502 67Z" fill="white"/>
<path fill-rule="evenodd" clip-rule="evenodd" d="M37.2502 62C39.6316 62.2328 41.5611 63.4996 42.2502 66H43.2502C43.2868 65.9261 43.349 66.0051 43.2502 66L41.2502 68L40.2502 66C40.1882 66.0361 40.1951 65.9203 40.2502 66H41.2502C40.7763 64.697 39.2821 63.372 37.2502 63H38.2502L37.2502 62Z" fill="white"/>
<path fill-rule="evenodd" clip-rule="evenodd" d="M42.2502 66.9999C42.0175 69.3812 40.7505 71.3108 38.2502 71.9999V72.9999C38.2452 73.0989 38.3243 73.0365 38.2502 72.9999L36.2502 70.9999L38.2502 69.9999C38.2141 69.9379 38.3299 69.9449 38.2502 69.9999V70.9999C39.5532 70.526 40.8783 69.0316 41.2502 66.9999V67.9999L42.2502 66.9999Z" fill="white"/>
<path fill-rule="evenodd" clip-rule="evenodd" d="M37.2502 72C34.8688 71.7671 32.9393 70.5004 32.2502 68H31.2502C31.1515 67.995 31.2137 68.0739 31.2502 68L33.2502 66L34.2502 68C34.3053 68.0797 34.3122 67.964 34.2502 68H33.2502C33.7241 69.3031 35.2184 70.6279 37.2502 71H36.2502L37.2502 72Z" fill="white"/>
<path fill-rule="evenodd" clip-rule="evenodd" d="M38.2502 67H40.2502L36.2502 70L38.2502 67Z" fill="#232323"/>
<path fill-rule="evenodd" clip-rule="evenodd" d="M37.2502 67H35.2502L39.2502 64L37.2502 67Z" fill="#232323"/>
</svg>
