<svg width="44" height="54" viewBox="0 0 44 54" fill="none" xmlns="http://www.w3.org/2000/svg">
<path d="M11.1066 49.9781C11.4569 43.5723 11.9938 40.1548 13.4664 34.3215L22.2827 36.0817L30.4854 33.7563C31.3577 37.1408 31.7818 39.3678 32.5131 43.4586C33.2967 48.272 33.6341 51.3745 32.5131 52.7245C31.3068 53.7905 30.3634 53.6674 29.1763 52.5191C28.4758 49.4804 26.4462 48.5493 21.9895 47.822C17.322 48.49 15.2006 51.7838 14.8797 52.5705C14.5588 53.3571 12.3161 53.2285 11.7483 52.8271C11.1804 52.4258 11.1939 51.6102 11.1066 49.9781Z" fill="#161616"/>
<ellipse cx="5.55696" cy="7.74145" rx="5.5572" ry="5.54613" fill="#161616"/>
<ellipse cx="38.1049" cy="7.74145" rx="5.5572" ry="5.54613" fill="#161616"/>
<circle cx="22.209" cy="18.4028" r="18.4028" fill="#161616"/>
<circle cx="22.2088" cy="18.4026" r="15.9139" fill="#FF0000"/>
<ellipse cx="15.3357" cy="15.6304" rx="2.75305" ry="6.55568" fill="white"/>
<ellipse cx="15.3357" cy="15.6304" rx="2.75305" ry="6.55568" fill="white"/>
<ellipse cx="29.082" cy="15.6304" rx="2.75305" ry="6.55568" fill="white"/>
<ellipse cx="29.082" cy="15.6304" rx="2.75305" ry="6.55568" fill="white"/>
<circle cx="10.4569" cy="37.7255" r="4.75821" fill="#232323"/>
<circle cx="10.457" cy="37.7255" r="3.778" fill="#FF0000"/>
<path d="M11.6789 30.195C11.2759 31.6023 10.7084 32.1608 9.54138 33.0525L12.2865 33.9075L14.829 35.7976C15.261 34.898 15.4079 34.3418 15.1215 33.0525C14.133 30.8634 13.4216 30.1075 11.6789 30.195Z" fill="#232323"/>
<path d="M12.1882 30.9636C11.8181 32.299 10.2608 34.0373 10.3209 34.1143C10.381 34.1912 13.3948 35.7752 13.3948 35.7752C14.0815 35.1916 14.0498 34.7192 13.8608 33.4758C13.3731 31.795 13.0812 31.1376 12.1882 30.9636Z" fill="#FF0000"/>
<path d="M10.0385 34.3679C11.2903 32.9268 12.3835 31.3125 12.1583 30.874C11.4728 32.1048 10.8363 32.8571 9.5883 34.0405C7.8335 34.6699 6.88607 35.5337 6.64117 37.6835C6.39628 39.8333 9.05617 41.2651 9.05617 41.2651C6.98214 38.0867 6.84939 36.5077 10.0385 34.3679Z" fill="#CB0000"/>
<circle cx="32.9174" cy="36.8056" r="4.74532" fill="#232323"/>
<circle cx="32.9158" cy="36.6995" r="3.6087" fill="#FF0000"/>
<path fill-rule="evenodd" clip-rule="evenodd" d="M22.1735 37.7224C23.4671 37.7224 24.517 38.7723 24.517 40.0659C24.517 41.3595 23.4671 42.4094 22.1735 42.4094C20.8799 42.4094 19.83 41.3595 19.83 40.0659C19.83 38.7723 20.8799 37.7224 22.1735 37.7224Z" fill="white"/>
<path fill-rule="evenodd" clip-rule="evenodd" d="M19.0864 39.8299C19.2305 38.5204 20.0023 37.4252 21.5487 37.0462L21.5538 36.5844C21.5569 36.5301 21.5856 36.5205 21.6314 36.5406L22.7974 37.4162L21.6395 38.2877C21.5902 38.318 21.5588 38.3057 21.5366 38.2715V37.8923C20.7306 38.1529 20.1259 38.7131 19.8959 39.8303L19.5091 39.3024L19.0864 39.8299Z" fill="white"/>
<path fill-rule="evenodd" clip-rule="evenodd" d="M22.4135 36.9836C23.7231 37.1276 24.8183 37.8994 25.1973 39.4459L25.659 39.451C25.7133 39.4541 25.723 39.4829 25.7029 39.5286L24.8273 40.6946L23.9557 39.5367C23.9254 39.4874 23.9378 39.4561 23.972 39.4337H24.3512C24.0906 38.6279 23.5304 38.0231 22.4131 37.793L22.941 37.4063L22.4135 36.9836Z" fill="white"/>
<path fill-rule="evenodd" clip-rule="evenodd" d="M25.2606 40.3023C25.1167 41.6118 24.3448 42.707 22.7984 43.086L22.7933 43.5477C22.7901 43.6022 22.7615 43.6117 22.7157 43.5916L21.5497 42.716L22.7076 41.8445C22.7568 41.8143 22.7882 41.8265 22.8105 41.8606V42.2399C23.6164 41.9793 24.2212 41.4191 24.4512 40.3019L24.838 40.8298L25.2606 40.3023Z" fill="white"/>
<path fill-rule="evenodd" clip-rule="evenodd" d="M21.9333 43.1484C20.6237 43.0044 19.5285 42.2326 19.1496 40.6861L18.6878 40.681C18.6335 40.678 18.6239 40.6491 18.6439 40.6034L19.5196 39.4374L20.391 40.5954C20.4213 40.6447 20.409 40.676 20.3749 40.6983H19.9956C20.2562 41.5042 20.8164 42.1089 21.9337 42.3391L21.4057 42.7257L21.9333 43.1484Z" fill="white"/>
<path fill-rule="evenodd" clip-rule="evenodd" d="M22.4331 39.8138H23.6494L21.3036 41.7329L22.4331 39.8138Z" fill="#232323"/>
<path fill-rule="evenodd" clip-rule="evenodd" d="M21.9491 40.2048H20.7328L23.0786 38.2857L21.9491 40.2048Z" fill="#232323"/>
</svg>
