<svg width="467" height="27" viewBox="0 0 467 27" fill="none" xmlns="http://www.w3.org/2000/svg">
<path d="M157.8 21.8368L164.1 25.8352C164.912 26.3475 165.912 25.5853 165.675 24.6482L163.85 17.4761C163.8 17.2773 163.808 17.0686 163.872 16.8741C163.937 16.6796 164.054 16.5071 164.212 16.3766L169.862 11.666C170.599 11.0537 170.224 9.81675 169.262 9.75427L161.887 9.27947C161.686 9.26776 161.493 9.19772 161.331 9.0779C161.169 8.95807 161.045 8.79366 160.975 8.60474L158.225 1.68257C158.152 1.48253 158.02 1.30972 157.845 1.18761C157.671 1.0655 157.463 1 157.25 1C157.037 1 156.83 1.0655 156.655 1.18761C156.481 1.30972 156.348 1.48253 156.275 1.68257L153.526 8.60474C153.455 8.79366 153.332 8.95807 153.17 9.0779C153.008 9.19772 152.814 9.26776 152.613 9.27947L145.239 9.75427C144.276 9.81675 143.901 11.0537 144.639 11.666L150.288 16.3766C150.446 16.5071 150.564 16.6796 150.628 16.8741C150.692 17.0686 150.7 17.2773 150.651 17.4761L148.963 24.1234C148.676 25.248 149.876 26.1601 150.838 25.5478L156.7 21.8368C156.865 21.7324 157.055 21.6769 157.25 21.6769C157.445 21.6769 157.636 21.7324 157.8 21.8368Z" fill="#EC1721"/>
<path d="M195.8 21.8368L202.1 25.8352C202.912 26.3475 203.912 25.5853 203.675 24.6482L201.85 17.4761C201.8 17.2773 201.808 17.0686 201.872 16.8741C201.937 16.6796 202.054 16.5071 202.212 16.3766L207.862 11.666C208.599 11.0537 208.224 9.81675 207.262 9.75427L199.887 9.27947C199.686 9.26776 199.493 9.19772 199.331 9.0779C199.169 8.95807 199.045 8.79366 198.975 8.60474L196.225 1.68257C196.152 1.48253 196.02 1.30972 195.845 1.18761C195.671 1.0655 195.463 1 195.25 1C195.037 1 194.83 1.0655 194.655 1.18761C194.481 1.30972 194.348 1.48253 194.275 1.68257L191.526 8.60474C191.455 8.79366 191.332 8.95807 191.17 9.0779C191.008 9.19772 190.814 9.26776 190.613 9.27947L183.239 9.75427C182.276 9.81675 181.901 11.0537 182.639 11.666L188.288 16.3766C188.446 16.5071 188.564 16.6796 188.628 16.8741C188.692 17.0686 188.7 17.2773 188.651 17.4761L186.963 24.1234C186.676 25.248 187.876 26.1601 188.838 25.5478L194.7 21.8368C194.865 21.7324 195.055 21.6769 195.25 21.6769C195.445 21.6769 195.636 21.7324 195.8 21.8368Z" fill="#EC1721"/>
<path d="M233.8 21.8368L240.1 25.8352C240.912 26.3475 241.912 25.5853 241.675 24.6482L239.85 17.4761C239.8 17.2773 239.808 17.0686 239.872 16.8741C239.937 16.6796 240.054 16.5071 240.212 16.3766L245.862 11.666C246.599 11.0537 246.224 9.81675 245.262 9.75427L237.887 9.27947C237.686 9.26776 237.493 9.19772 237.331 9.0779C237.169 8.95807 237.045 8.79366 236.975 8.60474L234.225 1.68257C234.152 1.48253 234.02 1.30972 233.845 1.18761C233.671 1.0655 233.463 1 233.25 1C233.037 1 232.83 1.0655 232.655 1.18761C232.481 1.30972 232.348 1.48253 232.275 1.68257L229.526 8.60474C229.455 8.79366 229.332 8.95807 229.17 9.0779C229.008 9.19772 228.814 9.26776 228.613 9.27947L221.239 9.75427C220.276 9.81675 219.901 11.0537 220.639 11.666L226.288 16.3766C226.446 16.5071 226.564 16.6796 226.628 16.8741C226.692 17.0686 226.7 17.2773 226.651 17.4761L224.963 24.1234C224.676 25.248 225.876 26.1601 226.838 25.5478L232.7 21.8368C232.865 21.7324 233.055 21.6769 233.25 21.6769C233.445 21.6769 233.636 21.7324 233.8 21.8368Z" fill="#EC1721"/>
<path d="M271.8 21.8368L278.1 25.8352C278.912 26.3475 279.912 25.5853 279.675 24.6482L277.85 17.4761C277.8 17.2773 277.808 17.0686 277.872 16.8741C277.937 16.6796 278.054 16.5071 278.212 16.3766L283.862 11.666C284.599 11.0537 284.224 9.81675 283.262 9.75427L275.887 9.27947C275.686 9.26776 275.493 9.19772 275.331 9.0779C275.169 8.95807 275.045 8.79366 274.975 8.60474L272.225 1.68257C272.152 1.48253 272.02 1.30972 271.845 1.18761C271.671 1.0655 271.463 1 271.25 1C271.037 1 270.83 1.0655 270.655 1.18761C270.481 1.30972 270.348 1.48253 270.275 1.68257L267.526 8.60474C267.455 8.79366 267.332 8.95807 267.17 9.0779C267.008 9.19772 266.814 9.26776 266.613 9.27947L259.239 9.75427C258.276 9.81675 257.901 11.0537 258.639 11.666L264.288 16.3766C264.446 16.5071 264.564 16.6796 264.628 16.8741C264.692 17.0686 264.7 17.2773 264.651 17.4761L262.963 24.1234C262.676 25.248 263.876 26.1601 264.838 25.5478L270.7 21.8368C270.865 21.7324 271.055 21.6769 271.25 21.6769C271.445 21.6769 271.636 21.7324 271.8 21.8368Z" fill="#EC1721"/>
<path d="M309.8 21.8368L316.1 25.8352C316.912 26.3475 317.912 25.5853 317.675 24.6482L315.85 17.4761C315.8 17.2773 315.808 17.0686 315.872 16.8741C315.937 16.6796 316.054 16.5071 316.212 16.3766L321.862 11.666C322.599 11.0537 322.224 9.81675 321.262 9.75427L313.887 9.27947C313.686 9.26776 313.493 9.19772 313.331 9.0779C313.169 8.95807 313.045 8.79366 312.975 8.60474L310.225 1.68257C310.152 1.48253 310.02 1.30972 309.845 1.18761C309.671 1.0655 309.463 1 309.25 1C309.037 1 308.83 1.0655 308.655 1.18761C308.481 1.30972 308.348 1.48253 308.275 1.68257L305.526 8.60474C305.455 8.79366 305.332 8.95807 305.17 9.0779C305.008 9.19772 304.814 9.26776 304.613 9.27947L297.239 9.75427C296.276 9.81675 295.901 11.0537 296.639 11.666L302.288 16.3766C302.446 16.5071 302.564 16.6796 302.628 16.8741C302.692 17.0686 302.7 17.2773 302.651 17.4761L300.963 24.1234C300.676 25.248 301.876 26.1601 302.838 25.5478L308.7 21.8368C308.865 21.7324 309.055 21.6769 309.25 21.6769C309.445 21.6769 309.636 21.7324 309.8 21.8368Z" stroke="#EC1721" stroke-width="1.74327" stroke-linecap="round" stroke-linejoin="round"/>
</svg>
